<svg xmlns="http://www.w3.org/2000/svg" viewBox="0 0 1280 720" width="1280" height="720">
  <defs>
    <linearGradient id="titleGradient" x1="0%" y1="0%" x2="100%" y2="100%">
      <stop offset="0%" stop-color="#0E7C66" />
      <stop offset="100%" stop-color="#0A5A49" />
    </linearGradient>
    <radialGradient id="citrusGradient" cx="38%" cy="34%" r="72%">
      <stop offset="0%" stop-color="#F9B257" />
      <stop offset="55%" stop-color="#F2811D" />
      <stop offset="100%" stop-color="#D9670E" />
    </radialGradient>
    <linearGradient id="leafGradient" x1="0%" y1="0%" x2="100%" y2="100%">
      <stop offset="0%" stop-color="#2E9E5B" />
      <stop offset="100%" stop-color="#0E7C66" />
    </linearGradient>
    <radialGradient id="bgDecor" cx="82%" cy="20%" r="60%">
      <stop offset="0%" stop-color="#0E7C66" stop-opacity="0.10" />
      <stop offset="100%" stop-color="#0E7C66" stop-opacity="0" />
    </radialGradient>
    <filter id="badgeShadow" x="-30%" y="-30%" width="160%" height="160%">
      <feGaussianBlur in="SourceAlpha" stdDeviation="6" />
      <feOffset dx="0" dy="4" result="o" />
      <feFlood flood-color="#0F172A" flood-opacity="0.12" result="c" />
      <feComposite in="c" in2="o" operator="in" result="s" />
      <feMerge><feMergeNode in="s" /><feMergeNode in="SourceGraphic" /></feMerge>
    </filter>
  </defs>

  
  <g id="bg">
    <rect width="1280" height="720" fill="#FFFFFF" />
    <rect width="1280" height="720" fill="url(#bgDecor)" />
    
    <rect x="0" y="0" width="14" height="720" fill="url(#titleGradient)" />
    
    <circle cx="1000" cy="372" r="250" fill="#F4F7F6" />
  </g>

  
  <g id="cover-visual">
    
    <ellipse cx="1000" cy="540" rx="150" ry="22" fill="#0F172A" opacity="0.08" />
    
    <circle cx="1000" cy="372" r="140" fill="url(#citrusGradient)" />
    
    <ellipse cx="958" cy="326" rx="46" ry="34" fill="#FFFFFF" fill-opacity="0.28" />
    
    <circle cx="1044" cy="338" r="3" fill="#C25A0A" fill-opacity="0.5" />
    <circle cx="1066" cy="392" r="3" fill="#C25A0A" fill-opacity="0.5" />
    <circle cx="978" cy="430" r="3" fill="#C25A0A" fill-opacity="0.5" />
    <circle cx="1018" cy="300" r="3" fill="#C25A0A" fill-opacity="0.5" />
    
    <circle cx="1052" cy="418" r="15" fill="#7A3B12" />
    <circle cx="1052" cy="418" r="15" fill="#3B1D08" fill-opacity="0.45" />
    
    <path d="M 1000 232 q 40 -44 92 -34 q 6 50 -38 70 q -34 14 -54 -6 Z" fill="url(#leafGradient)" />
    <path d="M 1000 232 q 18 -10 40 -22" fill="none" stroke="#0A5A49" stroke-width="2" stroke-linecap="round" />
    <path fill="#8A5A2B" d="M999,226 H1001 A5,5 0 0 1 1006,231 V247 A5,5 0 0 1 1001,252 H999 A5,5 0 0 1 994,247 V231 A5,5 0 0 1 999,226 Z" />

    
    <g stroke="#0E7C66" stroke-width="3" fill="none" stroke-linecap="round">
      <path d="M 846 256 v -26 h 26" />
      <path d="M 1154 256 v -26 h -26" />
      <path d="M 846 488 v 26 h 26" />
      <path d="M 1154 488 v 26 h -26" />
    </g>
    
    <line x1="858" y1="372" x2="1142" y2="372" stroke="#0E7C66" stroke-width="2" stroke-dasharray="2,6" stroke-opacity="0.7" />

    
    <path fill="none" stroke="#E0544A" stroke-width="2.5" d="M1030,392 H1074 A4,4 0 0 1 1078,396 V440 A4,4 0 0 1 1074,444 H1030 A4,4 0 0 1 1026,440 V396 A4,4 0 0 1 1030,392 Z" />
    <path fill="#E0544A" d="M1029,376 H1115 A3,3 0 0 1 1118,379 V391 A3,3 0 0 1 1115,394 H1029 A3,3 0 0 1 1026,391 V379 A3,3 0 0 1 1029,376 Z" />
    <text x="1032" y="389" font-family="'Microsoft YaHei', Arial, sans-serif" font-size="11" font-weight="700" fill="#FFFFFF">病斑 0.92</text>

    
    <g filter="url(#badgeShadow)">
      <path fill="#FFFFFF" d="M800,280 H926 A12,12 0 0 1 938,292 V318 A12,12 0 0 1 926,330 H800 A12,12 0 0 1 788,318 V292 A12,12 0 0 1 800,280 Z" />
    </g>
    
  <g transform="translate(802.0, 293.0)" fill="none" stroke="#F2811D" stroke-width="2">
    <path d="M12 21a9 9 0 0 1 0 -18c4.97 0 9 3.582 9 8c0 1.06 -.474 2.078 -1.318 2.828c-.844 .75 -1.989 1.172 -3.182 1.172h-2.5a2 2 0 0 0 -1 3.75a1.3 1.3 0 0 1 -1 2.25" />
    <path d="M7.5 10.5a1 1 0 1 0 2 0a1 1 0 1 0 -2 0" />
    <path d="M11.5 7.5a1 1 0 1 0 2 0a1 1 0 1 0 -2 0" />
    <path d="M15.5 10.5a1 1 0 1 0 2 0a1 1 0 1 0 -2 0" />
  </g>
    <text x="834" y="301" font-family="'Microsoft YaHei', Arial, sans-serif" font-size="12" fill="#5B6B73">着色率</text>
    <text x="834" y="322" font-family="'Microsoft YaHei', Arial, sans-serif" font-size="18" font-weight="800" fill="#1F2A33">92%</text>

    
    <g filter="url(#badgeShadow)">
      <path fill="#0E7C66" d="M1070,470 H1184 A12,12 0 0 1 1196,482 V510 A12,12 0 0 1 1184,522 H1070 A12,12 0 0 1 1058,510 V482 A12,12 0 0 1 1070,470 Z" />
    </g>
    
  <g transform="translate(1072.0, 484.0)" fill="none" stroke="#FFFFFF" stroke-width="2">
    <path d="M3 12a9 9 0 1 0 18 0a9 9 0 1 0 -18 0" />
    <path d="M9 12l2 2l4 -4" />
  </g>
    <text x="1104" y="492" font-family="'Microsoft YaHei', Arial, sans-serif" font-size="11" fill="#BFE6D9">评定等级</text>
    <text x="1104" y="513" font-family="'Microsoft YaHei', Arial, sans-serif" font-size="18" font-weight="800" fill="#FFFFFF">一级 · 精品</text>
  </g>

  
  <g id="cover-heading">
    
    <path fill="#0E7C66" fill-opacity="0.10" d="M100,118 H418 A20,20 0 0 1 438,138 V138 A20,20 0 0 1 418,158 H100 A20,20 0 0 1 80,138 V138 A20,20 0 0 1 100,118 Z" />
    
  <g transform="translate(96.0, 127.0) scale(0.9166666666666666)" fill="none" stroke="#0E7C66" stroke-width="2">
    <path d="M5 21c.5 -4.5 2.5 -8 7 -10" />
    <path d="M9 18c6.218 0 10.5 -3.288 11 -12v-2h-4.014c-9 0 -11.986 4 -12 9c0 1 0 3 2 5h3l.014 0" />
  </g>
    <text x="126" y="144" font-family="'Microsoft YaHei', Arial, sans-serif" font-size="16" font-weight="700" fill="#0A5A49">软件工程课程设计 · 题目10 项目方案汇报</text>

    
    <text x="78" y="248" font-family="'Microsoft YaHei', Arial, sans-serif" font-size="54" font-weight="800" fill="#1F2A33">基于机器视觉的农产品</text>
    <text x="78" y="316" font-family="'Microsoft YaHei', Arial, sans-serif" font-size="54" font-weight="800" fill="#1F2A33">品质<tspan fill="#F2811D">分级</tspan>与<tspan fill="#E0544A">缺陷检测</tspan>系统</text>

    
    <path fill="url(#titleGradient)" d="M83,356 H83 A3,3 0 0 1 86,359 V409 A3,3 0 0 1 83,412 H83 A3,3 0 0 1 80,409 V359 A3,3 0 0 1 83,356 Z" />
    <text x="102" y="382" font-family="'Microsoft YaHei', Arial, sans-serif" font-size="24" font-weight="700" fill="#0E7C66">CitrusVision</text>
    <text x="102" y="408" font-family="'Microsoft YaHei', Arial, sans-serif" font-size="17" fill="#5B6B73">面向肇庆本地柑橘的品质分级与缺陷检测 Web 系统</text>
  </g>

  
  <g id="cover-info">
    <line x1="80" y1="468" x2="640" y2="468" stroke="#E2E8E9" stroke-width="2" />
    
  <g transform="translate(80.0, 500.0) scale(0.9166666666666666)" fill="none" stroke="#0E7C66" stroke-width="2">
    <path d="M5 7a4 4 0 1 0 8 0a4 4 0 1 0 -8 0" />
    <path d="M3 21v-2a4 4 0 0 1 4 -4h4a4 4 0 0 1 4 4v2" />
    <path d="M16 3.13a4 4 0 0 1 0 7.75" />
    <path d="M21 21v-2a4 4 0 0 0 -3 -3.85" />
  </g>
    <text x="110" y="517" font-family="'Microsoft YaHei', Arial, sans-serif" font-size="16" fill="#1F2A33">第 12 组 · 23 本科计科 1 班</text>
    <text x="80" y="556" font-family="'Microsoft YaHei', Arial, sans-serif" font-size="15" fill="#5B6B73">组员：<tspan fill="#1F2A33" font-weight="700">陈绍杰</tspan>（组长）· 黄权达 · 张嘉豪 · 黄浩然</text>
    
  <g transform="translate(80.0, 582.0) scale(0.8333333333333334)" fill="none" stroke="#5B6B73" stroke-width="2">
    <path d="M4 7a2 2 0 0 1 2 -2h12a2 2 0 0 1 2 2v12a2 2 0 0 1 -2 2h-12a2 2 0 0 1 -2 -2l0 -12" />
    <path d="M16 3l0 4" />
    <path d="M8 3l0 4" />
    <path d="M4 11l16 0" />
    <path d="M8 15h2v2h-2l0 -2" />
  </g>
    <text x="108" y="598" font-family="'Microsoft YaHei', Arial, sans-serif" font-size="15" fill="#5B6B73">汇报日期 2026-06 · 指导教师 ×××</text>
  </g>

  
  <g id="cover-footer">
    <text x="80" y="688" font-family="'Microsoft YaHei', Arial, sans-serif" font-size="12" fill="#94A3B8">CitrusVision · 《软件工程课程设计》项目方案汇报</text>
    <text x="1200" y="688" text-anchor="end" font-family="'Microsoft YaHei', Arial, sans-serif" font-size="12" fill="#94A3B8">01 / 18</text>
  </g>
</svg>