<svg xmlns="http://www.w3.org/2000/svg" viewBox="0 0 1280 720" width="1280" height="720">
  <defs>
    <linearGradient id="rail" x1="0%" y1="0%" x2="0%" y2="100%">
      <stop offset="0%" stop-color="#0E7C66" />
      <stop offset="100%" stop-color="#F2811D" />
    </linearGradient>
  </defs>

  
  <g id="bg">
    <rect width="1280" height="720" fill="#FFFFFF" />
  </g>

  
  <g id="header">
    <path fill="#0E7C66" d="M63,52 H63 A3,3 0 0 1 66,55 V113 A3,3 0 0 1 63,116 H63 A3,3 0 0 1 60,113 V55 A3,3 0 0 1 63,52 Z" />
    <text x="82" y="92" font-family="'Microsoft YaHei', Arial, sans-serif" font-size="36" font-weight="800" fill="#1F2A33">汇报路线图 · 六步讲清方案</text>
    <text x="84" y="124" font-family="'Microsoft YaHei', Arial, sans-serif" font-size="15" fill="#5B6B73">为什么做 → 做什么 → 怎么做 → 怎么推进 → 如何验证 → 预期结果，形成完整工程论证闭环</text>
    
    <path fill="#0E7C66" fill-opacity="0.10" d="M1054,58 H1186 A14,14 0 0 1 1200,72 V100 A14,14 0 0 1 1186,114 H1054 A14,14 0 0 1 1040,100 V72 A14,14 0 0 1 1054,58 Z" />
    <text x="1120" y="88" text-anchor="middle" font-family="'Microsoft YaHei', Arial, sans-serif" font-size="26" font-weight="800" fill="#0E7C66">18<tspan font-size="15" dx="2">页</tspan></text>
    <text x="1120" y="106" text-anchor="middle" font-family="'Microsoft YaHei', Arial, sans-serif" font-size="11" font-weight="700" fill="#0A5A49" letter-spacing="1">约 10–12 分钟</text>
  </g>

  
  <line x1="120" y1="195" x2="120" y2="585" stroke="url(#rail)" stroke-width="3" stroke-linecap="round" />

  
  <g id="item-01">
    <circle cx="120" cy="195" r="24" fill="#FFFFFF" stroke="#0E7C66" stroke-width="3" />
    <text x="120" y="202" text-anchor="middle" font-family="'Microsoft YaHei', Arial, sans-serif" font-size="15" font-weight="800" fill="#0E7C66">01</text>
    
  <g transform="translate(168.0, 183.0)" fill="none" stroke="#0E7C66" stroke-width="2">
    <path d="M3 19a2 2 0 1 0 4 0a2 2 0 0 0 -4 0" />
    <path d="M19 7a2 2 0 1 0 0 -4a2 2 0 0 0 0 4" />
    <path d="M11 19h5.5a3.5 3.5 0 0 0 0 -7h-8a3.5 3.5 0 0 1 0 -7h4.5" />
  </g>
    <text x="202" y="190" font-family="'Microsoft YaHei', Arial, sans-serif" font-size="21" font-weight="800" fill="#1F2A33">为什么做 · 产业痛点与选题论证</text>
    <text x="202" y="216" font-family="'Microsoft YaHei', Arial, sans-serif" font-size="14" fill="#5B6B73">肇庆柑橘产业人工目检痛点，五维度论证"为什么是柑橘"</text>
    <path fill="#0E7C66" fill-opacity="0.10" d="M1047,178 H1163 A17,17 0 0 1 1180,195 V195 A17,17 0 0 1 1163,212 H1047 A17,17 0 0 1 1030,195 V195 A17,17 0 0 1 1047,178 Z" />
    <text x="1105" y="200" text-anchor="middle" font-family="'Microsoft YaHei', Arial, sans-serif" font-size="13" font-weight="700" fill="#0A5A49">P03 – P04</text>
  </g>

  
  <g id="item-02">
    <circle cx="120" cy="273" r="24" fill="#FFFFFF" stroke="#0E7C66" stroke-width="3" />
    <text x="120" y="280" text-anchor="middle" font-family="'Microsoft YaHei', Arial, sans-serif" font-size="15" font-weight="800" fill="#0E7C66">02</text>
    
  <g transform="translate(168.0, 261.0)" fill="none" stroke="#0E7C66" stroke-width="2">
    <path d="M11 12a1 1 0 1 0 2 0a1 1 0 1 0 -2 0" />
    <path d="M7 12a5 5 0 1 0 10 0a5 5 0 1 0 -10 0" />
    <path d="M3 12a9 9 0 1 0 18 0a9 9 0 1 0 -18 0" />
  </g>
    <text x="202" y="268" font-family="'Microsoft YaHei', Arial, sans-serif" font-size="21" font-weight="800" fill="#1F2A33">做什么 · 定位 / 目标 / 用户 / 需求 / 功能</text>
    <text x="202" y="294" font-family="'Microsoft YaHei', Arial, sans-serif" font-size="14" fill="#5B6B73">系统定位与可量化目标、目标用户、需求分析与功能模块设计</text>
    <path fill="#0E7C66" fill-opacity="0.10" d="M1047,256 H1163 A17,17 0 0 1 1180,273 V273 A17,17 0 0 1 1163,290 H1047 A17,17 0 0 1 1030,273 V273 A17,17 0 0 1 1047,256 Z" />
    <text x="1105" y="278" text-anchor="middle" font-family="'Microsoft YaHei', Arial, sans-serif" font-size="13" font-weight="700" fill="#0A5A49">P05 – P08</text>
  </g>

  
  <g id="item-03">
    <circle cx="120" cy="351" r="24" fill="#FFFFFF" stroke="#0E7C66" stroke-width="3" />
    <text x="120" y="358" text-anchor="middle" font-family="'Microsoft YaHei', Arial, sans-serif" font-size="15" font-weight="800" fill="#0E7C66">03</text>
    
  <g transform="translate(168.0, 339.0)" fill="none" stroke="#0E7C66" stroke-width="2">
    <path d="M5 6a1 1 0 0 1 1 -1h12a1 1 0 0 1 1 1v12a1 1 0 0 1 -1 1h-12a1 1 0 0 1 -1 -1l0 -12" />
    <path d="M9 9h6v6h-6l0 -6" />
    <path d="M3 10h2" />
    <path d="M3 14h2" />
    <path d="M10 3v2" />
    <path d="M14 3v2" />
    <path d="M21 10h-2" />
    <path d="M21 14h-2" />
    <path d="M14 21v-2" />
    <path d="M10 21v-2" />
  </g>
    <text x="202" y="346" font-family="'Microsoft YaHei', Arial, sans-serif" font-size="21" font-weight="800" fill="#1F2A33">怎么做 · 技术 / 架构 / 算法 / 流程 / 数据库</text>
    <text x="202" y="372" font-family="'Microsoft YaHei', Arial, sans-serif" font-size="14" fill="#5B6B73">技术栈选型、四层架构、双引擎算法、业务流程与数据库设计</text>
    <path fill="#0E7C66" fill-opacity="0.10" d="M1047,334 H1163 A17,17 0 0 1 1180,351 V351 A17,17 0 0 1 1163,368 H1047 A17,17 0 0 1 1030,351 V351 A17,17 0 0 1 1047,334 Z" />
    <text x="1105" y="356" text-anchor="middle" font-family="'Microsoft YaHei', Arial, sans-serif" font-size="13" font-weight="700" fill="#0A5A49">P09 – P13</text>
  </g>

  
  <g id="item-04">
    <circle cx="120" cy="429" r="24" fill="#FFFFFF" stroke="#0E7C66" stroke-width="3" />
    <text x="120" y="436" text-anchor="middle" font-family="'Microsoft YaHei', Arial, sans-serif" font-size="15" font-weight="800" fill="#0E7C66">04</text>
    
  <g transform="translate(168.0, 417.0)" fill="none" stroke="#0E7C66" stroke-width="2">
    <path d="M4 7a2 2 0 0 1 2 -2h12a2 2 0 0 1 2 2v12a2 2 0 0 1 -2 2h-12a2 2 0 0 1 -2 -2l0 -12" />
    <path d="M16 3l0 4" />
    <path d="M8 3l0 4" />
    <path d="M4 11l16 0" />
    <path d="M8 15h2v2h-2l0 -2" />
  </g>
    <text x="202" y="424" font-family="'Microsoft YaHei', Arial, sans-serif" font-size="21" font-weight="800" fill="#1F2A33">怎么推进 · 实施计划与团队分工</text>
    <text x="202" y="450" font-family="'Microsoft YaHei', Arial, sans-serif" font-size="14" fill="#5B6B73">4 周里程碑计划、关键路径，4 人可追溯分工与协作机制</text>
    <path fill="#0E7C66" fill-opacity="0.10" d="M1047,412 H1163 A17,17 0 0 1 1180,429 V429 A17,17 0 0 1 1163,446 H1047 A17,17 0 0 1 1030,429 V429 A17,17 0 0 1 1047,412 Z" />
    <text x="1105" y="434" text-anchor="middle" font-family="'Microsoft YaHei', Arial, sans-serif" font-size="13" font-weight="700" fill="#0A5A49">P14 – P15</text>
  </g>

  
  <g id="item-05">
    <circle cx="120" cy="507" r="24" fill="#FFFFFF" stroke="#0E7C66" stroke-width="3" />
    <text x="120" y="514" text-anchor="middle" font-family="'Microsoft YaHei', Arial, sans-serif" font-size="15" font-weight="800" fill="#0E7C66">05</text>
    
  <g transform="translate(168.0, 495.0)" fill="none" stroke="#0E7C66" stroke-width="2">
    <path d="M9 5h-2a2 2 0 0 0 -2 2v12a2 2 0 0 0 2 2h10a2 2 0 0 0 2 -2v-12a2 2 0 0 0 -2 -2h-2" />
    <path d="M9 5a2 2 0 0 1 2 -2h2a2 2 0 0 1 2 2a2 2 0 0 1 -2 2h-2a2 2 0 0 1 -2 -2" />
    <path d="M9 14l2 2l4 -4" />
  </g>
    <text x="202" y="502" font-family="'Microsoft YaHei', Arial, sans-serif" font-size="21" font-weight="800" fill="#1F2A33">如何验证 · 测试方案与验收标准</text>
    <text x="202" y="528" font-family="'Microsoft YaHei', Arial, sans-serif" font-size="14" fill="#5B6B73">五层测试矩阵、典型用例，可逐项核验的"完成定义"</text>
    <path fill="#0E7C66" fill-opacity="0.10" d="M1047,490 H1163 A17,17 0 0 1 1180,507 V507 A17,17 0 0 1 1163,524 H1047 A17,17 0 0 1 1030,507 V507 A17,17 0 0 1 1047,490 Z" />
    <text x="1105" y="512" text-anchor="middle" font-family="'Microsoft YaHei', Arial, sans-serif" font-size="13" font-weight="700" fill="#0A5A49">P16</text>
  </g>

  
  <g id="item-06">
    <circle cx="120" cy="585" r="26" fill="#F2811D" />
    <text x="120" y="592" text-anchor="middle" font-family="'Microsoft YaHei', Arial, sans-serif" font-size="15" font-weight="800" fill="#FFFFFF">06</text>
    
  <g transform="translate(168.0, 573.0)" fill="none" stroke="#F2811D" stroke-width="2">
    <path d="M12 3l8 4.5l0 9l-8 4.5l-8 -4.5l0 -9l8 -4.5" />
    <path d="M12 12l8 -4.5" />
    <path d="M12 12l0 9" />
    <path d="M12 12l-8 -4.5" />
    <path d="M16 5.25l-8 4.5" />
  </g>
    <text x="202" y="580" font-family="'Microsoft YaHei', Arial, sans-serif" font-size="21" font-weight="800" fill="#1F2A33">预期结果 · 创新亮点 / 风险 / 交付物<tspan dx="10" font-size="12" font-weight="800" fill="#F2811D">闭环收束</tspan></text>
    <text x="202" y="606" font-family="'Microsoft YaHei', Arial, sans-serif" font-size="14" fill="#5B6B73">差异化创新点、风险应对预案，与最终交付清单及总结答疑</text>
    <path fill="#F2811D" fill-opacity="0.14" d="M1047,568 H1163 A17,17 0 0 1 1180,585 V585 A17,17 0 0 1 1163,602 H1047 A17,17 0 0 1 1030,585 V585 A17,17 0 0 1 1047,568 Z" />
    <text x="1105" y="590" text-anchor="middle" font-family="'Microsoft YaHei', Arial, sans-serif" font-size="13" font-weight="700" fill="#C2610A">P17 – P18</text>
  </g>

  
  <g id="footer">
    <line x1="60" y1="660" x2="1220" y2="660" stroke="#E2E8E9" stroke-width="1" />
    <text x="60" y="688" font-family="'Microsoft YaHei', Arial, sans-serif" font-size="12" fill="#94A3B8">CitrusVision · 软件工程课程设计项目方案汇报</text>
    <text x="1220" y="688" text-anchor="end" font-family="'Microsoft YaHei', Arial, sans-serif" font-size="12" fill="#94A3B8">02 / 18</text>
  </g>
</svg>