<svg xmlns="http://www.w3.org/2000/svg" viewBox="0 0 1280 720" width="1280" height="720">
  <defs>
    <filter id="colShadow" x="-10%" y="-8%" width="120%" height="116%">
      <feGaussianBlur in="SourceAlpha" stdDeviation="5" />
      <feOffset dx="0" dy="3" result="o" />
      <feFlood flood-color="#0F172A" flood-opacity="0.05" result="c" />
      <feComposite in="c" in2="o" operator="in" result="s" />
      <feMerge><feMergeNode in="s" /><feMergeNode in="SourceGraphic" /></feMerge>
    </filter>
  </defs>
  <g id="bg"><rect width="1280" height="720" fill="#FFFFFF" /></g>

  
  <g id="header">
    <path fill="#0E7C66" d="M63,40 H63 A3,3 0 0 1 66,43 V91 A3,3 0 0 1 63,94 H63 A3,3 0 0 1 60,91 V43 A3,3 0 0 1 63,40 Z" />
    <text x="82" y="74" font-family="'Microsoft YaHei', Arial, sans-serif" font-size="34" font-weight="800" fill="#1F2A33">技术栈选型及理由</text>
    <text x="84" y="102" font-family="'Microsoft YaHei', Arial, sans-serif" font-size="15" fill="#5B6B73">每项选型对应教学 / 交付 / 风险考量——"为什么这样做"，而非堆砌时髦框架</text>
  </g>

  
  <g id="col-frontend" transform="translate(64, 150)">
    <path fill="#FFFFFF" stroke="#E2E8E9" stroke-width="1" filter="url(#colShadow)" d="M12,0 H198 A12,12 0 0 1 210,12 V456 A12,12 0 0 1 198,468 H12 A12,12 0 0 1 0,456 V12 A12,12 0 0 1 12,0 Z" />
    <path d="M 12 0 h 186 a 12 12 0 0 1 12 12 v 92 h -210 v -92 a 12 12 0 0 1 12 -12 Z" fill="#0E7C66" fill-opacity="0.10" />
    
  <g transform="translate(85.0, 20.0) scale(1.6666666666666667)" fill="none" stroke="#0E7C66" stroke-width="2">
    <path d="M4 5a1 1 0 0 1 1 -1h4a1 1 0 0 1 1 1v4a1 1 0 0 1 -1 1h-4a1 1 0 0 1 -1 -1l0 -4" />
    <path d="M14 5a1 1 0 0 1 1 -1h4a1 1 0 0 1 1 1v4a1 1 0 0 1 -1 1h-4a1 1 0 0 1 -1 -1l0 -4" />
    <path d="M4 15a1 1 0 0 1 1 -1h4a1 1 0 0 1 1 1v4a1 1 0 0 1 -1 1h-4a1 1 0 0 1 -1 -1l0 -4" />
    <path d="M14 15a1 1 0 0 1 1 -1h4a1 1 0 0 1 1 1v4a1 1 0 0 1 -1 1h-4a1 1 0 0 1 -1 -1l0 -4" />
  </g>
    <text x="105" y="80" text-anchor="middle" font-family="'Microsoft YaHei', Arial, sans-serif" font-size="18" font-weight="800" fill="#0E7C66">前端</text>
    <text x="105" y="98" text-anchor="middle" font-family="'Microsoft YaHei', Arial, sans-serif" font-size="11" fill="#5B6B73">Vue 3 + Vite</text>
    <circle cx="22" cy="142" r="3" fill="#0E7C66" /><text x="34" y="147" font-family="'Microsoft YaHei', Arial, sans-serif" font-size="13" font-weight="700" fill="#1F2A33">Element Plus 组件库</text>
    <circle cx="22" cy="178" r="3" fill="#0E7C66" /><text x="34" y="183" font-family="'Microsoft YaHei', Arial, sans-serif" font-size="13" font-weight="700" fill="#1F2A33">ECharts 可视化</text>
    <circle cx="22" cy="214" r="3" fill="#0E7C66" /><text x="34" y="219" font-family="'Microsoft YaHei', Arial, sans-serif" font-size="13" font-weight="700" fill="#1F2A33">Pinia / Router / Axios</text>
    <path fill="#0E7C66" fill-opacity="0.06" d="M20,248 H190 A8,8 0 0 1 198,256 V440 A8,8 0 0 1 190,448 H20 A8,8 0 0 1 12,440 V256 A8,8 0 0 1 20,248 Z" />
    <text x="26" y="274" font-family="'Microsoft YaHei', Arial, sans-serif" font-size="12" font-weight="800" fill="#0A5A49">选型理由</text>
    <text x="26" y="302" font-family="'Microsoft YaHei', Arial, sans-serif" font-size="12.5" fill="#5B6B73">① 组件库出活快、</text>
    <text x="26" y="322" font-family="'Microsoft YaHei', Arial, sans-serif" font-size="12.5" fill="#5B6B73">   学习曲线平缓</text>
    <text x="26" y="350" font-family="'Microsoft YaHei', Arial, sans-serif" font-size="12.5" fill="#5B6B73">② ECharts 演示效果好</text>
    <text x="26" y="386" font-family="'Microsoft YaHei', Arial, sans-serif" font-size="12.5" fill="#5B6B73">③ 一套响应式同时</text>
    <text x="26" y="406" font-family="'Microsoft YaHei', Arial, sans-serif" font-size="12.5" fill="#5B6B73">   兼顾 PC 与 H5</text>
  </g>

  
  <g id="col-backend" transform="translate(298, 150)">
    <path fill="#FFFFFF" stroke="#E2E8E9" stroke-width="1" filter="url(#colShadow)" d="M12,0 H198 A12,12 0 0 1 210,12 V456 A12,12 0 0 1 198,468 H12 A12,12 0 0 1 0,456 V12 A12,12 0 0 1 12,0 Z" />
    <path d="M 12 0 h 186 a 12 12 0 0 1 12 12 v 92 h -210 v -92 a 12 12 0 0 1 12 -12 Z" fill="#0A5A49" fill-opacity="0.10" />
    
  <g transform="translate(85.0, 20.0) scale(1.6666666666666667)" fill="none" stroke="#0A5A49" stroke-width="2">
    <path d="M3 7a3 3 0 0 1 3 -3h12a3 3 0 0 1 3 3v2a3 3 0 0 1 -3 3h-12a3 3 0 0 1 -3 -3" />
    <path d="M3 15a3 3 0 0 1 3 -3h12a3 3 0 0 1 3 3v2a3 3 0 0 1 -3 3h-12a3 3 0 0 1 -3 -3l0 -2" />
    <path d="M7 8l0 .01" />
    <path d="M7 16l0 .01" />
  </g>
    <text x="105" y="80" text-anchor="middle" font-family="'Microsoft YaHei', Arial, sans-serif" font-size="18" font-weight="800" fill="#0A5A49">后端 API</text>
    <text x="105" y="98" text-anchor="middle" font-family="'Microsoft YaHei', Arial, sans-serif" font-size="11" fill="#5B6B73">FastAPI</text>
    <circle cx="22" cy="142" r="3" fill="#0A5A49" /><text x="34" y="147" font-family="'Microsoft YaHei', Arial, sans-serif" font-size="13" font-weight="700" fill="#1F2A33">Python 3.10 + Uvicorn</text>
    <circle cx="22" cy="178" r="3" fill="#0A5A49" /><text x="34" y="183" font-family="'Microsoft YaHei', Arial, sans-serif" font-size="13" font-weight="700" fill="#1F2A33">SQLAlchemy ORM</text>
    <circle cx="22" cy="214" r="3" fill="#0A5A49" /><text x="34" y="219" font-family="'Microsoft YaHei', Arial, sans-serif" font-size="13" font-weight="700" fill="#1F2A33">Pydantic 校验</text>
    <path fill="#0A5A49" fill-opacity="0.06" d="M20,248 H190 A8,8 0 0 1 198,256 V440 A8,8 0 0 1 190,448 H20 A8,8 0 0 1 12,440 V256 A8,8 0 0 1 20,248 Z" />
    <text x="26" y="274" font-family="'Microsoft YaHei', Arial, sans-serif" font-size="12" font-weight="800" fill="#0A5A49">选型理由</text>
    <text x="26" y="302" font-family="'Microsoft YaHei', Arial, sans-serif" font-size="12.5" fill="#5B6B73">① 与算法同为 Python，</text>
    <text x="26" y="322" font-family="'Microsoft YaHei', Arial, sans-serif" font-size="12.5" fill="#5B6B73">   集成零成本</text>
    <text x="26" y="350" font-family="'Microsoft YaHei', Arial, sans-serif" font-size="12.5" fill="#5B6B73">② 自带 Swagger 交互式</text>
    <text x="26" y="370" font-family="'Microsoft YaHei', Arial, sans-serif" font-size="12.5" fill="#5B6B73">   API 文档</text>
    <text x="26" y="398" font-family="'Microsoft YaHei', Arial, sans-serif" font-size="12.5" fill="#5B6B73">③ 直接服务接口设计交付</text>
  </g>

  
  <g id="col-algo" transform="translate(532, 150)">
    <path fill="#FFFFFF" stroke="#E2E8E9" stroke-width="1" filter="url(#colShadow)" d="M12,0 H198 A12,12 0 0 1 210,12 V456 A12,12 0 0 1 198,468 H12 A12,12 0 0 1 0,456 V12 A12,12 0 0 1 12,0 Z" />
    <path d="M 12 0 h 186 a 12 12 0 0 1 12 12 v 92 h -210 v -92 a 12 12 0 0 1 12 -12 Z" fill="#F2811D" fill-opacity="0.12" />
    
  <g transform="translate(85.0, 20.0) scale(1.6666666666666667)" fill="none" stroke="#F2811D" stroke-width="2">
    <path d="M5 6a1 1 0 0 1 1 -1h12a1 1 0 0 1 1 1v12a1 1 0 0 1 -1 1h-12a1 1 0 0 1 -1 -1l0 -12" />
    <path d="M9 9h6v6h-6l0 -6" />
    <path d="M3 10h2" />
    <path d="M3 14h2" />
    <path d="M10 3v2" />
    <path d="M14 3v2" />
    <path d="M21 10h-2" />
    <path d="M21 14h-2" />
    <path d="M14 21v-2" />
    <path d="M10 21v-2" />
  </g>
    <text x="105" y="80" text-anchor="middle" font-family="'Microsoft YaHei', Arial, sans-serif" font-size="18" font-weight="800" fill="#C2610A">算法服务</text>
    <text x="105" y="98" text-anchor="middle" font-family="'Microsoft YaHei', Arial, sans-serif" font-size="11" fill="#5B6B73">OpenCV + YOLOv8</text>
    <circle cx="22" cy="142" r="3" fill="#F2811D" /><text x="34" y="147" font-family="'Microsoft YaHei', Arial, sans-serif" font-size="13" font-weight="700" fill="#1F2A33">PyTorch + Ultralytics</text>
    <circle cx="22" cy="178" r="3" fill="#F2811D" /><text x="34" y="183" font-family="'Microsoft YaHei', Arial, sans-serif" font-size="13" font-weight="700" fill="#1F2A33">传统 CV 特征</text>
    <circle cx="22" cy="214" r="3" fill="#F2811D" /><text x="34" y="219" font-family="'Microsoft YaHei', Arial, sans-serif" font-size="13" font-weight="700" fill="#1F2A33">scikit-learn</text>
    <path fill="#F2811D" fill-opacity="0.07" d="M20,248 H190 A8,8 0 0 1 198,256 V440 A8,8 0 0 1 190,448 H20 A8,8 0 0 1 12,440 V256 A8,8 0 0 1 20,248 Z" />
    <text x="26" y="274" font-family="'Microsoft YaHei', Arial, sans-serif" font-size="12" font-weight="800" fill="#C2610A">选型理由</text>
    <text x="26" y="302" font-family="'Microsoft YaHei', Arial, sans-serif" font-size="12.5" fill="#5B6B73">① 拆独立服务，体现</text>
    <text x="26" y="322" font-family="'Microsoft YaHei', Arial, sans-serif" font-size="12.5" fill="#5B6B73">   四层架构</text>
    <text x="26" y="350" font-family="'Microsoft YaHei', Arial, sans-serif" font-size="12.5" fill="#5B6B73">② 开箱即用、CPU 可推理</text>
    <text x="26" y="386" font-family="'Microsoft YaHei', Arial, sans-serif" font-size="12.5" fill="#5B6B73">③ 传统 CV 分级可解释</text>
    <text x="26" y="406" font-family="'Microsoft YaHei', Arial, sans-serif" font-size="12.5" fill="#5B6B73">   且能兜底</text>
  </g>

  
  <g id="col-db" transform="translate(766, 150)">
    <path fill="#FFFFFF" stroke="#E2E8E9" stroke-width="1" filter="url(#colShadow)" d="M12,0 H198 A12,12 0 0 1 210,12 V456 A12,12 0 0 1 198,468 H12 A12,12 0 0 1 0,456 V12 A12,12 0 0 1 12,0 Z" />
    <path d="M 12 0 h 186 a 12 12 0 0 1 12 12 v 92 h -210 v -92 a 12 12 0 0 1 12 -12 Z" fill="#2E9E5B" fill-opacity="0.12" />
    
  <g transform="translate(85.0, 20.0) scale(1.6666666666666667)" fill="none" stroke="#2E9E5B" stroke-width="2">
    <path d="M4 6a8 3 0 1 0 16 0a8 3 0 1 0 -16 0" />
    <path d="M4 6v6a8 3 0 0 0 16 0v-6" />
    <path d="M4 12v6a8 3 0 0 0 16 0v-6" />
  </g>
    <text x="105" y="80" text-anchor="middle" font-family="'Microsoft YaHei', Arial, sans-serif" font-size="18" font-weight="800" fill="#1F7A45">数据库</text>
    <text x="105" y="98" text-anchor="middle" font-family="'Microsoft YaHei', Arial, sans-serif" font-size="11" fill="#5B6B73">MySQL 8 / SQLite</text>
    <circle cx="22" cy="142" r="3" fill="#2E9E5B" /><text x="34" y="147" font-family="'Microsoft YaHei', Arial, sans-serif" font-size="13" font-weight="700" fill="#1F2A33">MySQL 8（生产）</text>
    <circle cx="22" cy="178" r="3" fill="#2E9E5B" /><text x="34" y="183" font-family="'Microsoft YaHei', Arial, sans-serif" font-size="13" font-weight="700" fill="#1F2A33">SQLite（开发）</text>
    <circle cx="22" cy="214" r="3" fill="#2E9E5B" /><text x="34" y="219" font-family="'Microsoft YaHei', Arial, sans-serif" font-size="13" font-weight="700" fill="#1F2A33">Navicat 管理</text>
    <path fill="#2E9E5B" fill-opacity="0.07" d="M20,248 H190 A8,8 0 0 1 198,256 V440 A8,8 0 0 1 190,448 H20 A8,8 0 0 1 12,440 V256 A8,8 0 0 1 20,248 Z" />
    <text x="26" y="274" font-family="'Microsoft YaHei', Arial, sans-serif" font-size="12" font-weight="800" fill="#1F7A45">选型理由</text>
    <text x="26" y="302" font-family="'Microsoft YaHei', Arial, sans-serif" font-size="12.5" fill="#5B6B73">① 符合"数据库设计"</text>
    <text x="26" y="322" font-family="'Microsoft YaHei', Arial, sans-serif" font-size="12.5" fill="#5B6B73">   要求，便于画 E-R</text>
    <text x="26" y="350" font-family="'Microsoft YaHei', Arial, sans-serif" font-size="12.5" fill="#5B6B73">② 开发期 SQLite 零配置</text>
    <text x="26" y="386" font-family="'Microsoft YaHei', Arial, sans-serif" font-size="12.5" fill="#5B6B73">③ SQLAlchemy 无缝切换</text>
  </g>

  
  <g id="col-train" transform="translate(1000, 150)">
    <path fill="#FFFFFF" stroke="#E2E8E9" stroke-width="1" filter="url(#colShadow)" d="M12,0 H198 A12,12 0 0 1 210,12 V456 A12,12 0 0 1 198,468 H12 A12,12 0 0 1 0,456 V12 A12,12 0 0 1 12,0 Z" />
    <path d="M 12 0 h 186 a 12 12 0 0 1 12 12 v 92 h -210 v -92 a 12 12 0 0 1 12 -12 Z" fill="#5B6B73" fill-opacity="0.12" />
    
  <g transform="translate(85.0, 20.0) scale(1.6666666666666667)" fill="none" stroke="#5B6B73" stroke-width="2">
    <path d="M6.657 18c-2.572 0 -4.657 -2.007 -4.657 -4.483c0 -2.475 2.085 -4.482 4.657 -4.482c.393 -1.762 1.794 -3.2 3.675 -3.773c1.88 -.572 3.956 -.193 5.444 1c1.488 1.19 2.162 3.007 1.77 4.769h.99c1.913 0 3.464 1.56 3.464 3.486c0 1.927 -1.551 3.487 -3.465 3.487h-11.878" />
  </g>
    <text x="105" y="80" text-anchor="middle" font-family="'Microsoft YaHei', Arial, sans-serif" font-size="18" font-weight="800" fill="#475569">训练 &amp; 工具</text>
    <text x="105" y="98" text-anchor="middle" font-family="'Microsoft YaHei', Arial, sans-serif" font-size="11" fill="#5B6B73">Colab / AI Studio</text>
    <circle cx="22" cy="142" r="3" fill="#5B6B73" /><text x="34" y="147" font-family="'Microsoft YaHei', Arial, sans-serif" font-size="13" font-weight="700" fill="#1F2A33">免费 GPU 训练</text>
    <circle cx="22" cy="178" r="3" fill="#5B6B73" /><text x="34" y="183" font-family="'Microsoft YaHei', Arial, sans-serif" font-size="13" font-weight="700" fill="#1F2A33">Roboflow / LabelImg</text>
    <circle cx="22" cy="214" r="3" fill="#5B6B73" /><text x="34" y="219" font-family="'Microsoft YaHei', Arial, sans-serif" font-size="13" font-weight="700" fill="#1F2A33">Docker / Git</text>
    <path fill="#5B6B73" fill-opacity="0.07" d="M20,248 H190 A8,8 0 0 1 198,256 V440 A8,8 0 0 1 190,448 H20 A8,8 0 0 1 12,440 V256 A8,8 0 0 1 20,248 Z" />
    <text x="26" y="274" font-family="'Microsoft YaHei', Arial, sans-serif" font-size="12" font-weight="800" fill="#475569">选型理由</text>
    <text x="26" y="302" font-family="'Microsoft YaHei', Arial, sans-serif" font-size="12.5" fill="#5B6B73">① 规避无独立 GPU 风险</text>
    <text x="26" y="338" font-family="'Microsoft YaHei', Arial, sans-serif" font-size="12.5" fill="#5B6B73">② 云端免费 GPU 训练</text>
    <text x="26" y="374" font-family="'Microsoft YaHei', Arial, sans-serif" font-size="12.5" fill="#5B6B73">③ 在线标注 + 数据增强，</text>
    <text x="26" y="394" font-family="'Microsoft YaHei', Arial, sans-serif" font-size="12.5" fill="#5B6B73">   导出 YOLO 格式</text>
  </g>

  
  <g id="footer">
    <text x="60" y="688" font-family="'Microsoft YaHei', Arial, sans-serif" font-size="12" fill="#94A3B8">CitrusVision · 软件工程课程设计项目方案汇报</text>
    <text x="1220" y="688" text-anchor="end" font-family="'Microsoft YaHei', Arial, sans-serif" font-size="12" fill="#94A3B8">10 / 18</text>
  </g>
</svg>