<svg xmlns="http://www.w3.org/2000/svg" viewBox="0 0 1280 720" width="1280" height="720">
  <g id="bg"><rect width="1280" height="720" fill="#FFFFFF" /></g>

  
  <g id="header">
    <path fill="#0E7C66" d="M63,38 H63 A3,3 0 0 1 66,41 V87 A3,3 0 0 1 63,90 H63 A3,3 0 0 1 60,87 V41 A3,3 0 0 1 63,38 Z" />
    <text x="82" y="70" font-family="'Microsoft YaHei', Arial, sans-serif" font-size="32" font-weight="800" fill="#1F2A33">数据库与核心数据设计</text>
    <text x="84" y="96" font-family="'Microsoft YaHei', Arial, sans-serif" font-size="14" fill="#5B6B73">MySQL 8 · 10 张核心表——围绕"任务→结果→缺陷"主线建模，配置类独立成表</text>
  </g>

  
  <g id="er-lines" stroke="#94A3B8" stroke-width="1.5" fill="none">
    <line x1="216" y1="186" x2="312" y2="186" />
    <line x1="141" y1="216" x2="141" y2="300" />
    <line x1="141" y1="358" x2="141" y2="442" />
    <line x1="216" y1="330" x2="312" y2="345" />
    <line x1="390" y1="218" x2="390" y2="326" />
    <line x1="390" y1="390" x2="390" y2="500" />
    <line x1="468" y1="184" x2="568" y2="200" />
    <line x1="468" y1="350" x2="568" y2="352" />
    <line x1="468" y1="372" x2="568" y2="494" />
    <line x1="141" y1="486" x2="141" y2="566" stroke-dasharray="4,3" />
  </g>
  <g id="er-card" font-family="'Microsoft YaHei', Arial, sans-serif" font-size="12" font-weight="700" fill="#5B6B73">
    <text x="250" y="178">1</text><text x="296" y="178">N</text>
    <text x="148" y="240">1</text><text x="148" y="292">N</text>
    <text x="148" y="382">1</text><text x="148" y="434">1</text>
    <text x="252" y="322">1</text><text x="296" y="344">N</text>
    <text x="398" y="244">1</text><text x="398" y="318">N</text>
    <text x="398" y="416">1</text><text x="398" y="492">N</text>
    <text x="500" y="186">N</text><text x="548" y="200">1</text>
    <text x="500" y="346">N</text><text x="548" y="352">1</text>
  </g>

  
  <g id="entities" font-family="'Microsoft YaHei', Arial, sans-serif">
    
    <path fill="#FFFFFF" stroke="#0E7C66" stroke-width="1.5" d="M74,158 H208 A8,8 0 0 1 216,166 V208 A8,8 0 0 1 208,216 H74 A8,8 0 0 1 66,208 V166 A8,8 0 0 1 74,158 Z" />
    <text x="78" y="180" font-size="14" font-weight="800" fill="#0A5A49">user 用户</text>
    <line x1="74" y1="188" x2="208" y2="188" stroke="#E2E8E9" stroke-width="1" />
    <text x="78" y="206" font-size="11" fill="#5B6B73">id(PK) · username · role</text>
    
    <path fill="#FFFFFF" stroke="#0E7C66" stroke-width="1.5" d="M74,300 H208 A8,8 0 0 1 216,308 V350 A8,8 0 0 1 208,358 H74 A8,8 0 0 1 66,350 V308 A8,8 0 0 1 74,300 Z" />
    <text x="78" y="322" font-size="14" font-weight="800" fill="#0A5A49">product_sample</text>
    <line x1="74" y1="330" x2="208" y2="330" stroke="#E2E8E9" stroke-width="1" />
    <text x="78" y="348" font-size="11" fill="#5B6B73">id(PK) · image_path · origin</text>
    
    <path fill="#FFFFFF" stroke="#2E9E5B" stroke-width="1.5" d="M74,442 H208 A8,8 0 0 1 216,450 V486 A8,8 0 0 1 208,494 H74 A8,8 0 0 1 66,486 V450 A8,8 0 0 1 74,442 Z" />
    <text x="78" y="464" font-size="14" font-weight="800" fill="#1F7A45">traceability</text>
    <line x1="74" y1="472" x2="208" y2="472" stroke="#E2E8E9" stroke-width="1" />
    <text x="78" y="488" font-size="11" fill="#5B6B73">id(PK) · origin · qr_code</text>
    
    <path fill="#FFFFFF" stroke="#5B6B73" stroke-width="1.5" d="M74,566 H208 A8,8 0 0 1 216,574 V610 A8,8 0 0 1 208,618 H74 A8,8 0 0 1 66,610 V574 A8,8 0 0 1 74,566 Z" />
    <text x="78" y="588" font-size="14" font-weight="800" fill="#475569">operation_log</text>
    <line x1="74" y1="596" x2="208" y2="596" stroke="#E2E8E9" stroke-width="1" />
    <text x="78" y="612" font-size="11" fill="#5B6B73">id(PK) · action · ip</text>

    
    <path fill="#FFFFFF" stroke="#0E7C66" stroke-width="1.5" d="M320,158 H460 A8,8 0 0 1 468,166 V208 A8,8 0 0 1 460,216 H320 A8,8 0 0 1 312,208 V166 A8,8 0 0 1 320,158 Z" />
    <text x="324" y="180" font-size="14" font-weight="800" fill="#0A5A49">detection_task</text>
    <line x1="320" y1="188" x2="460" y2="188" stroke="#E2E8E9" stroke-width="1" />
    <text x="324" y="206" font-size="11" fill="#5B6B73">id(PK) · task_no · status</text>
    
    <path fill="#0E7C66" fill-opacity="0.06" stroke="#0E7C66" stroke-width="2" d="M320,326 H460 A8,8 0 0 1 468,334 V382 A8,8 0 0 1 460,390 H320 A8,8 0 0 1 312,382 V334 A8,8 0 0 1 320,326 Z" />
    <text x="324" y="348" font-size="14" font-weight="800" fill="#0A5A49">detection_result</text>
    <line x1="320" y1="356" x2="460" y2="356" stroke="#CFE3DD" stroke-width="1" />
    <text x="324" y="374" font-size="11" fill="#5B6B73">id(PK) · grade · 指标</text>
    
    <path fill="#FFFFFF" stroke="#F2811D" stroke-width="1.5" d="M320,500 H460 A8,8 0 0 1 468,508 V550 A8,8 0 0 1 460,558 H320 A8,8 0 0 1 312,550 V508 A8,8 0 0 1 320,500 Z" />
    <text x="324" y="522" font-size="14" font-weight="800" fill="#C2610A">defect_label</text>
    <line x1="320" y1="530" x2="460" y2="530" stroke="#E2E8E9" stroke-width="1" />
    <text x="324" y="548" font-size="11" fill="#5B6B73">id(PK) · type · bbox</text>

    
    <path fill="#FFFFFF" stroke="#5B6B73" stroke-width="1.5" d="M576,174 H716 A8,8 0 0 1 724,182 V222 A8,8 0 0 1 716,230 H576 A8,8 0 0 1 568,222 V182 A8,8 0 0 1 576,174 Z" />
    <text x="580" y="196" font-size="14" font-weight="800" fill="#475569">model_info</text>
    <line x1="576" y1="204" x2="716" y2="204" stroke="#E2E8E9" stroke-width="1" />
    <text x="580" y="220" font-size="11" fill="#5B6B73">id(PK) · version · map50</text>
    
    <path fill="#FFFFFF" stroke="#F2811D" stroke-width="1.5" d="M576,326 H716 A8,8 0 0 1 724,334 V374 A8,8 0 0 1 716,382 H576 A8,8 0 0 1 568,374 V334 A8,8 0 0 1 576,326 Z" />
    <text x="580" y="348" font-size="14" font-weight="800" fill="#C2610A">grade_standard</text>
    <line x1="576" y1="356" x2="716" y2="356" stroke="#E2E8E9" stroke-width="1" />
    <text x="580" y="372" font-size="11" fill="#5B6B73">id(PK) · 阈值 · is_active</text>
    
    <path fill="#FFFFFF" stroke="#F2811D" stroke-width="1.5" d="M576,468 H716 A8,8 0 0 1 724,476 V516 A8,8 0 0 1 716,524 H576 A8,8 0 0 1 568,516 V476 A8,8 0 0 1 576,468 Z" />
    <text x="580" y="490" font-size="14" font-weight="800" fill="#C2610A">price_reference</text>
    <line x1="576" y1="498" x2="716" y2="498" stroke="#E2E8E9" stroke-width="1" />
    <text x="580" y="514" font-size="11" fill="#5B6B73">id(PK) · grade · price</text>
  </g>
  <text x="66" y="650" font-family="'Microsoft YaHei', Arial, sans-serif" font-size="12" fill="#94A3B8">E-R 图（实体关系）· 主键统一 id BIGINT，均含 created_at / updated_at</text>

  
  <g id="fields">
    <path fill="#F4F7F6" d="M802,150 H1203 A12,12 0 0 1 1215,162 V606 A12,12 0 0 1 1203,618 H802 A12,12 0 0 1 790,606 V162 A12,12 0 0 1 802,150 Z" />
    
  <g transform="translate(812.0, 170.0) scale(1.0833333333333333)" fill="none" stroke="#0E7C66" stroke-width="2">
    <path d="M3 5a2 2 0 0 1 2 -2h14a2 2 0 0 1 2 2v14a2 2 0 0 1 -2 2h-14a2 2 0 0 1 -2 -2v-14" />
    <path d="M3 10h18" />
    <path d="M10 3v18" />
  </g>
    <text x="846" y="190" font-family="'Microsoft YaHei', Arial, sans-serif" font-size="17" font-weight="800" fill="#1F2A33">detection_result 核心字段</text>
    <text x="812" y="216" font-family="'Microsoft YaHei', Arial, sans-serif" font-size="13" fill="#5B6B73">一次检测结果，承载等级与全部量化指标</text>

    <g font-family="'Microsoft YaHei', Arial, sans-serif">
      <path fill="#FFFFFF" d="M818,234 H1187 A6,6 0 0 1 1193,240 V278 A6,6 0 0 1 1187,284 H818 A6,6 0 0 1 812,278 V240 A6,6 0 0 1 818,234 Z" />
      <text x="828" y="256" font-size="14" font-weight="800" fill="#0A5A49">grade</text>
      <text x="828" y="276" font-size="12" fill="#5B6B73">评定等级 ENUM(grade1/grade2/out)</text>

      <path fill="#FFFFFF" d="M818,290 H1187 A6,6 0 0 1 1193,296 V328 A6,6 0 0 1 1187,334 H818 A6,6 0 0 1 812,328 V296 A6,6 0 0 1 818,290 Z" />
      <text x="828" y="312" font-size="14" font-weight="800" fill="#0A5A49">diameter_mm</text>
      <text x="1177" y="312" text-anchor="end" font-size="12" fill="#5B6B73">果径估计</text>
      <text x="828" y="328" font-size="11" fill="#94A3B8">DECIMAL(6,2)</text>

      <path fill="#FFFFFF" d="M818,340 H1187 A6,6 0 0 1 1193,346 V378 A6,6 0 0 1 1187,384 H818 A6,6 0 0 1 812,378 V346 A6,6 0 0 1 818,340 Z" />
      <text x="828" y="362" font-size="14" font-weight="800" fill="#0A5A49">color_ratio</text>
      <text x="1177" y="362" text-anchor="end" font-size="12" fill="#5B6B73">着色率 %</text>
      <text x="828" y="378" font-size="11" fill="#94A3B8">DECIMAL(5,2)</text>

      <path fill="#FFFFFF" d="M818,390 H1187 A6,6 0 0 1 1193,396 V428 A6,6 0 0 1 1187,434 H818 A6,6 0 0 1 812,428 V396 A6,6 0 0 1 818,390 Z" />
      <text x="828" y="412" font-size="14" font-weight="800" fill="#0A5A49">defect_ratio</text>
      <text x="1177" y="412" text-anchor="end" font-size="12" fill="#5B6B73">缺陷面积占比 %</text>
      <text x="828" y="428" font-size="11" fill="#94A3B8">DECIMAL(5,2)</text>

      <path fill="#FFFFFF" d="M818,440 H1187 A6,6 0 0 1 1193,446 V478 A6,6 0 0 1 1187,484 H818 A6,6 0 0 1 812,478 V446 A6,6 0 0 1 818,440 Z" />
      <text x="828" y="462" font-size="14" font-weight="800" fill="#0A5A49">confidence</text>
      <text x="1177" y="462" text-anchor="end" font-size="12" fill="#5B6B73">综合置信度</text>
      <text x="828" y="478" font-size="11" fill="#94A3B8">DECIMAL(4,3)</text>

      <path fill="#FFFFFF" d="M818,490 H1187 A6,6 0 0 1 1193,496 V528 A6,6 0 0 1 1187,534 H818 A6,6 0 0 1 812,528 V496 A6,6 0 0 1 818,490 Z" />
      <text x="828" y="512" font-size="14" font-weight="800" fill="#0A5A49">ref_price</text>
      <text x="1177" y="512" text-anchor="end" font-size="12" fill="#5B6B73">参考价 · annotated_path 标注图</text>
      <text x="828" y="528" font-size="11" fill="#94A3B8">DECIMAL(8,2)</text>
    </g>
    
    <path fill="#0E7C66" fill-opacity="0.07" d="M820,546 H1185 A8,8 0 0 1 1193,554 V594 A8,8 0 0 1 1185,602 H820 A8,8 0 0 1 812,594 V554 A8,8 0 0 1 820,546 Z" />
    
  <g transform="translate(824.0, 560.0) scale(0.9166666666666666)" fill="none" stroke="#0E7C66" stroke-width="2">
    <path d="M9 15l6 -6" />
    <path d="M11 6l.463 -.536a5 5 0 0 1 7.072 0a4.993 4.993 0 0 1 -.001 7.072" />
    <path d="M12.603 18.534a5.07 5.07 0 0 1 -7.127 0a4.972 4.972 0 0 1 0 -7.071l.524 -.463" />
    <path d="M16 19h6" />
    <path d="M19 16v6" />
  </g>
    <text x="852" y="570" font-family="'Microsoft YaHei', Arial, sans-serif" font-size="11.5" fill="#1F2A33">task 1—N result · result 1—N defect</text>
    <text x="852" y="590" font-family="'Microsoft YaHei', Arial, sans-serif" font-size="11.5" fill="#1F2A33">sample 1—1 trace · task N—1 model</text>
  </g>

  
  <g id="footer">
    <text x="60" y="694" font-family="'Microsoft YaHei', Arial, sans-serif" font-size="12" fill="#94A3B8">CitrusVision · 软件工程课程设计项目方案汇报</text>
    <text x="1220" y="694" text-anchor="end" font-family="'Microsoft YaHei', Arial, sans-serif" font-size="12" fill="#94A3B8">13 / 18</text>
  </g>
</svg>